<?xml version="1.0" encoding="utf-8"?>
<!-- Generator: Adobe Illustrator 25.0.0, SVG Export Plug-In . SVG Version: 6.00 Build 0)  -->
<svg version="1.1" id="Camada_1" xmlns="http://www.w3.org/2000/svg" xmlns:xlink="http://www.w3.org/1999/xlink" x="0px" y="0px"
	 viewBox="0 0 512 380" style="enable-background:new 0 0 512 380;" xml:space="preserve">
<style type="text/css">
	.st0{fill:#e6e8eb;}
</style>
<g>
	<path class="st0" d="M63,264.4L6.4,205.2L121.4,95.5c1.3-1.3,2.6-2.5,4-3.7c84.4-76.5,216.1-69.6,293.6,15.6l16.3,17.9l-42.6,38.8
		c-9.9,9-25.2,8.3-34.2-1.6v0c-47.2-51.8-127-56.3-178-10c-0.8,0.7-1.6,1.5-2.5,2.3L63,264.4z"/>
	<path class="st0" d="M248.4,363.9c-56.9,0-113.9-23.2-155.3-68.7l-16.3-17.9l42.6-38.8c9.9-9,25.2-8.3,34.2,1.6l0,0
		c47.2,51.8,127,56.3,178,10c0.8-0.8,1.7-1.5,2.5-2.3L449,138.2l56.5,59.2L390.6,307.1c-1.3,1.3-2.7,2.5-4,3.7
		C347.4,346.4,297.9,363.9,248.4,363.9z"/>
</g>
</svg>
